<?xml version="1.0" encoding="utf-8"?>
<!-- Generator: Adobe Illustrator 16.0.0, SVG Export Plug-In . SVG Version: 6.00 Build 0)  -->
<!DOCTYPE svg PUBLIC "-//W3C//DTD SVG 1.1//EN" "http://www.w3.org/Graphics/SVG/1.1/DTD/svg11.dtd">
<svg version="1.1" id="Layer_1" xmlns="http://www.w3.org/2000/svg" xmlns:xlink="http://www.w3.org/1999/xlink" x="0px" y="0px"
	 width="30px" height="30px" viewBox="0 0 30 30" enable-background="new 0 0 30 30" xml:space="preserve">
<path fill="#FFFFFF" d="M14.989,0c-8.284,0-15,6.716-15,15s6.716,15,15,15c8.285,0,15-6.716,15-15S23.273,0,14.989,0z M18.867,15H16
	v9h-3v-9h-2v-3h2V9.921c0-1.354,0.084-2.281,0.724-2.976C14.364,6.25,15.181,6,16.646,6H19v3h-1.404
	c-0.291,0-0.523,0.011-0.697,0.059c-0.176,0.049-0.301,0.129-0.379,0.256c-0.078,0.127-0.296,0.251-0.319,0.382
	c-0.021,0.13-0.2,0.311-0.2,0.549V12h3.203L18.867,15z"/>
</svg>
