<?xml version="1.0" encoding="utf-8"?>
<!-- Generator: Adobe Illustrator 16.0.0, SVG Export Plug-In . SVG Version: 6.00 Build 0)  -->
<!DOCTYPE svg PUBLIC "-//W3C//DTD SVG 1.1//EN" "http://www.w3.org/Graphics/SVG/1.1/DTD/svg11.dtd">
<svg version="1.1" id="Layer_1" xmlns="http://www.w3.org/2000/svg" xmlns:xlink="http://www.w3.org/1999/xlink" x="0px" y="0px"
	 width="30px" height="30px" viewBox="0 0 30 30" enable-background="new 0 0 30 30" xml:space="preserve">
<g>
	<path fill="#FFFFFF" d="M13.533,13.96c0.323-0.45,0.485-1.047,0.485-1.792c0-0.446-0.062-0.92-0.185-1.423
		c-0.122-0.502-0.297-0.988-0.524-1.457c-0.227-0.469-0.539-0.855-0.938-1.161c-0.397-0.305-0.843-0.458-1.333-0.458
		c-0.692,0-1.229,0.257-1.607,0.77c-0.38,0.513-0.569,1.127-0.569,1.841c0,0.35,0.043,0.718,0.128,1.105
		c0.086,0.387,0.218,0.774,0.396,1.161c0.179,0.387,0.387,0.735,0.625,1.044c0.238,0.309,0.528,0.56,0.871,0.753
		c0.342,0.194,0.703,0.291,1.082,0.291C12.686,14.635,13.208,14.41,13.533,13.96z"/>
	<path fill="#FFFFFF" d="M15.201,20.936c-0.037-0.123-0.102-0.252-0.195-0.385c-0.093-0.135-0.171-0.248-0.234-0.341
		c-0.062-0.093-0.161-0.202-0.295-0.329c-0.135-0.127-0.236-0.222-0.308-0.285c-0.07-0.062-0.189-0.158-0.356-0.284
		c-0.168-0.126-0.283-0.212-0.347-0.257s-0.186-0.13-0.368-0.257c-0.183-0.126-0.296-0.204-0.34-0.234
		c-0.127-0.015-0.312-0.022-0.559-0.022c-0.401,0-0.796,0.026-1.183,0.078c-0.388,0.053-0.789,0.146-1.206,0.279
		c-0.416,0.134-0.781,0.305-1.094,0.514c-0.312,0.208-0.568,0.487-0.77,0.837s-0.302,0.747-0.302,1.194
		c0,0.506,0.132,0.957,0.396,1.355c0.264,0.398,0.61,0.711,1.038,0.938s0.876,0.396,1.345,0.508s0.941,0.168,1.417,0.168
		c0.439,0,0.857-0.047,1.256-0.141c0.398-0.092,0.772-0.236,1.122-0.434s0.627-0.471,0.831-0.82c0.205-0.35,0.307-0.76,0.307-1.229
		c0-0.156-0.017-0.307-0.05-0.452S15.238,21.059,15.201,20.936z"/>
	<path fill="#FFFFFF" d="M14.989,0c-8.284,0-15,6.716-15,15s6.716,15,15,15c8.285,0,15-6.716,15-15S23.273,0,14.989,0z
		 M15.369,23.977c-1.131,0.975-2.693,1.463-4.688,1.463c-0.439,0-0.884-0.037-1.334-0.113c-0.45-0.074-0.904-0.197-1.361-0.373
		c-0.458-0.176-0.861-0.391-1.211-0.646c-0.351-0.258-0.636-0.588-0.859-0.994s-0.335-0.857-0.335-1.355
		c0-0.454,0.138-0.957,0.413-1.508c0.238-0.476,0.595-0.887,1.071-1.232s1.016-0.61,1.618-0.793c0.603-0.182,1.18-0.316,1.73-0.401
		c0.55-0.085,1.108-0.136,1.674-0.151c-0.477-0.617-0.715-1.172-0.715-1.662c0-0.09,0.008-0.177,0.022-0.263
		c0.015-0.085,0.034-0.158,0.056-0.217c0.022-0.06,0.053-0.14,0.09-0.24c0.037-0.1,0.063-0.18,0.078-0.24
		c-0.298,0.037-0.559,0.056-0.781,0.056c-1.108,0-2.06-0.364-2.852-1.094c-0.793-0.729-1.188-1.644-1.188-2.746
		c0-1.042,0.354-1.974,1.06-2.795c0.707-0.822,1.578-1.282,2.612-1.513C11.168,7.008,11.864,7,12.556,7h4.877l-1.507,1h-1.507
		c0.528,0,0.938,0.678,1.229,1.281c0.29,0.603,0.434,1.168,0.434,1.824c0,0.551-0.084,1.008-0.256,1.436
		c-0.171,0.428-0.379,0.756-0.625,1.017c-0.245,0.26-0.49,0.493-0.736,0.712c-0.245,0.22-0.454,0.442-0.625,0.677
		s-0.257,0.484-0.257,0.751c0,0.194,0.062,0.382,0.185,0.568s0.282,0.364,0.479,0.536c0.197,0.171,0.415,0.349,0.653,0.534
		s0.476,0.393,0.714,0.619c0.238,0.228,0.457,0.473,0.654,0.736c0.197,0.265,0.357,0.581,0.479,0.949
		c0.123,0.368,0.186,0.765,0.186,1.188C16.932,22.02,16.41,23.068,15.369,23.977z M24,11h-3v3h-1v-3h-3v-1h3V7h1v3h3V11z"/>
</g>
</svg>
