<?xml version="1.0" encoding="utf-8"?>
<!-- Generator: Adobe Illustrator 16.0.0, SVG Export Plug-In . SVG Version: 6.00 Build 0)  -->
<!DOCTYPE svg PUBLIC "-//W3C//DTD SVG 1.1//EN" "http://www.w3.org/Graphics/SVG/1.1/DTD/svg11.dtd">
<svg version="1.1" id="Layer_1" xmlns="http://www.w3.org/2000/svg" xmlns:xlink="http://www.w3.org/1999/xlink" x="0px" y="0px"
	 width="30px" height="30px" viewBox="0 0 30 30" enable-background="new 0 0 30 30" xml:space="preserve">
<path fill="#FFFFFF" d="M14.989,0c-8.284,0-15,6.716-15,15s6.716,15,15,15c8.285,0,15-6.716,15-15S23.273,0,14.989,0z
	 M22.033,11.214c0.006,0.104,0.01,0.261,0.01,0.469c0,0.967-0.141,1.933-0.424,2.896c-0.283,0.963-0.713,1.888-1.289,2.773
	s-1.262,1.668-2.059,2.35c-0.797,0.681-1.756,1.224-2.879,1.629c-1.124,0.405-2.325,0.608-3.605,0.608
	c-2.017,0-3.861-0.539-5.535-1.618c0.26,0.029,0.55,0.045,0.87,0.045c1.674,0,3.166-0.514,4.476-1.541
	c-0.781-0.015-1.48-0.254-2.099-0.72c-0.617-0.465-1.041-1.058-1.272-1.779c0.246,0.037,0.473,0.055,0.682,0.055
	c0.319,0,0.636-0.04,0.948-0.122c-0.833-0.171-1.506-0.586-2.053-1.245C7.256,14.356,7,13.591,7,12.721v-0.044
	c0,0.283,1.032,0.435,1.613,0.458c-0.491-0.328-0.89-0.755-1.18-1.284c-0.291-0.528-0.44-1.101-0.44-1.719
	c0-0.655,0.161-1.261,0.489-1.819c0.9,1.109,1.995,1.996,3.285,2.662c1.291,0.666,2.673,1.036,4.146,1.11
	c-0.06-0.283-0.089-0.558-0.089-0.826c0-0.997,0.35-1.847,1.053-2.55s1.553-1.055,2.551-1.055c1.041,0,1.92,0.379,2.635,1.138
	c0.811-0.156,1.572-0.446,2.287-0.871c-0.275,0.856-0.803,1.518-1.584,1.987c0.691-0.074,1.383-0.26,2.074-0.558
	C23.342,10.08,22.74,10.701,22.033,11.214z"/>
</svg>
